<?xml version="1.0" standalone="no"?>
<!DOCTYPE svg PUBLIC "-//W3C//DTD SVG 20010904//EN"
 "http://www.w3.org/TR/2001/REC-SVG-20010904/DTD/svg10.dtd">
<svg version="1.0" xmlns="http://www.w3.org/2000/svg"
 width="512.000000pt" height="512.000000pt" viewBox="0 0 512.000000 512.000000"
 preserveAspectRatio="xMidYMid meet">

<g transform="translate(0.000000,512.000000) scale(0.100000,-0.100000)"
fill="#000000" stroke="none">
<path d="M2398 5109 c-612 -35 -1199 -301 -1644 -744 -519 -517 -789 -1229
-743 -1958 12 -186 30 -308 74 -481 44 -176 90 -299 185 -492 126 -258 282
-476 485 -679 411 -411 955 -674 1525 -735 151 -17 442 -14 595 5 1070 132
1943 927 2180 1982 102 458 69 986 -90 1420 -20 54 -72 171 -115 260 -294 600
-805 1056 -1441 1283 -195 71 -448 124 -639 135 -198 12 -239 12 -372 4z
m1675 -1313 c52 -21 87 -70 87 -121 0 -52 -495 -2246 -515 -2286 -26 -50 -73
-74 -141 -74 -69 0 -29 -24 -599 363 l-250 169 -195 -184 c-107 -102 -207
-191 -222 -199 -51 -27 -119 -13 -160 33 -10 11 -81 206 -159 434 -77 228
-142 415 -143 416 -1 1 -175 49 -386 107 -427 117 -430 119 -430 196 0 26 7
47 23 64 17 20 334 138 1507 560 817 294 1500 535 1518 536 18 0 47 -6 65 -14z"/>
<path d="M2745 2895 c-515 -295 -815 -473 -824 -488 -13 -21 -5 -51 98 -360
62 -185 116 -337 120 -337 4 0 20 101 35 225 15 124 29 232 32 239 3 7 315
267 695 577 544 444 689 568 687 584 -2 11 -10 21 -18 22 -8 2 -379 -206 -825
-462z"/>
</g>
</svg>
